<?xml version="1.0" standalone="no"?><!DOCTYPE svg PUBLIC "-//W3C//DTD SVG 1.1//EN" "http://www.w3.org/Graphics/SVG/1.1/DTD/svg11.dtd"><svg width="100%" height="100%" viewBox="0 0 16 16" version="1.1" xmlns="http://www.w3.org/2000/svg" xmlns:xlink="http://www.w3.org/1999/xlink" xml:space="preserve" style="fill-rule:evenodd;clip-rule:evenodd;stroke-linejoin:round;stroke-miterlimit:1.41421;"><g id="Layer 1"><path d="M4.131,2.316c0.707,-0.094 1.255,0.27 1.518,0.598c0.225,0.28 0.432,0.829 0.351,1.372c-0.121,0.808 -0.903,1.582 -1.928,1.402c-0.702,-0.125 -1.308,-0.775 -1.357,-1.563c-0.035,-0.566 0.209,-1.066 0.481,-1.343c0.191,-0.192 0.483,-0.407 0.935,-0.466" style="fill:#3e3e3e;"/><path d="M7.233,6.301c0.859,-0.102 1.527,0.355 1.839,0.847c0.183,0.286 0.318,0.727 0.321,1.08c0.013,1.171 -0.893,2 -1.912,2c-0.585,0 -1.044,-0.25 -1.357,-0.584c-0.3,-0.317 -0.548,-0.762 -0.556,-1.372c-0.008,-0.706 0.292,-1.18 0.629,-1.489c0.244,-0.224 0.589,-0.428 1.036,-0.482" style="fill:#3e3e3e;"/><path d="M11.436,5.787c0.731,-0.096 1.273,0.278 1.534,0.628c0.224,0.299 0.432,0.781 0.335,1.357c-0.121,0.738 -0.756,1.354 -1.517,1.402c-0.389,0.024 -0.807,-0.103 -1.081,-0.307c-0.392,-0.293 -0.787,-0.901 -0.671,-1.679c0.06,-0.402 0.21,-0.626 0.365,-0.817c0.215,-0.268 0.575,-0.523 1.035,-0.584" style="fill:#3e3e3e;"/><path d="M4.35,8.622c0.405,-0.845 0.72,-1.782 1.109,-2.642c0.337,0.082 0.625,0.212 0.818,0.437c-0.915,0.643 -0.923,1.612 -1.219,2.76l-3.993,0c0.036,-1.261 0.554,-2.101 1.27,-2.687c0.249,-0.203 0.521,-0.33 0.832,-0.481c0.116,-0.057 0.108,-0.004 0.161,0.116c0.356,0.799 0.695,1.728 1.022,2.497" style="fill:#3e3e3e;"/><path d="M11.657,12.069c0.385,-0.861 0.717,-1.774 1.095,-2.642c1.278,0.497 2.12,1.491 2.204,3.196l-3.664,0c-0.384,-1.172 -0.985,-1.752 -1.899,-2.395c0.141,-0.222 0.838,-0.679 1.067,-0.771c0.014,-0.007 0.026,-0.037 0.058,-0.03c0.096,0.019 0.127,0.185 0.175,0.307c0.292,0.735 0.693,1.691 0.964,2.335" style="fill:#3e3e3e;"/><path d="M6.197,10.52c0.462,0.993 0.838,2.072 1.284,3.08c0.438,-1.013 0.832,-2.068 1.27,-3.08c1.464,0.62 2.444,1.723 2.541,3.708l-7.621,0c0.091,-1.986 1.077,-3.077 2.526,-3.708" style="fill:#3e3e3e;"/></g></svg>